<?xml version="1.0" encoding="utf-8" standalone="no"?>
<!DOCTYPE svg PUBLIC "-//W3C//DTD SVG 1.1//EN"
  "http://www.w3.org/Graphics/SVG/1.1/DTD/svg11.dtd">
<svg xmlns:xlink="http://www.w3.org/1999/xlink" width="576pt" height="216pt" viewBox="0 0 576 216" xmlns="http://www.w3.org/2000/svg" version="1.1">
 <metadata>
  <rdf:RDF xmlns:dc="http://purl.org/dc/elements/1.1/" xmlns:cc="http://creativecommons.org/ns#" xmlns:rdf="http://www.w3.org/1999/02/22-rdf-syntax-ns#">
   <cc:Work>
    <dc:type rdf:resource="http://purl.org/dc/dcmitype/StillImage"/>
    <dc:date>2022-10-07T08:45:47.037006</dc:date>
    <dc:format>image/svg+xml</dc:format>
    <dc:creator>
     <cc:Agent>
      <dc:title>Matplotlib v3.6.0, https://matplotlib.org/</dc:title>
     </cc:Agent>
    </dc:creator>
   </cc:Work>
  </rdf:RDF>
 </metadata>
 <defs>
  <style type="text/css">*{stroke-linejoin: round; stroke-linecap: butt}</style>
 </defs>
 <g id="figure_1">
  <g id="patch_1">
   <path d="M 0 216 
L 576 216 
L 576 0 
L 0 0 
z
" style="fill: #ffffff"/>
  </g>
  <g id="axes_1">
   <g id="patch_2">
    <path d="M 69.12 172.8 
L 529.92 172.8 
L 529.92 21.6 
L 69.12 21.6 
z
" style="fill: #ffffff"/>
   </g>
   <g id="PolyCollection_1">
    <defs>
     <path id="m980253a4da" d="M 69.12 -66.067543 
L 69.12 -10.8 
L 73.774545 -10.8 
L 78.429091 -10.8 
L 83.083636 -10.8 
L 87.738182 -10.8 
L 92.392727 -10.8 
L 97.047273 -10.8 
L 101.701818 -10.8 
L 106.356364 -10.8 
L 111.010909 -10.8 
L 115.665455 -10.8 
L 120.32 -10.8 
L 124.974545 -10.8 
L 129.629091 -10.8 
L 134.283636 -10.8 
L 138.938182 -10.8 
L 143.592727 -10.8 
L 148.247273 -10.8 
L 152.901818 -10.8 
L 157.556364 -10.8 
L 162.210909 -10.8 
L 166.865455 -10.8 
L 171.52 -10.8 
L 176.174545 -10.8 
L 180.829091 -10.8 
L 185.483636 -10.8 
L 190.138182 -10.8 
L 194.792727 -10.8 
L 199.447273 -10.8 
L 204.101818 -10.8 
L 208.756364 -10.8 
L 213.410909 -10.8 
L 218.065455 -10.8 
L 222.72 -10.8 
L 227.374545 -10.8 
L 232.029091 -10.8 
L 236.683636 -10.8 
L 241.338182 -10.8 
L 245.992727 -10.8 
L 250.647273 -10.8 
L 255.301818 -10.8 
L 259.956364 -10.8 
L 264.610909 -10.8 
L 269.265455 -10.8 
L 273.92 -10.8 
L 278.574545 -10.8 
L 283.229091 -10.8 
L 287.883636 -10.8 
L 292.538182 -10.8 
L 297.192727 -10.8 
L 301.847273 -10.8 
L 306.501818 -10.8 
L 311.156364 -10.8 
L 315.810909 -10.8 
L 320.465455 -10.8 
L 325.12 -10.8 
L 329.774545 -10.8 
L 334.429091 -10.8 
L 339.083636 -10.8 
L 343.738182 -10.8 
L 348.392727 -10.8 
L 353.047273 -10.8 
L 357.701818 -10.8 
L 362.356364 -10.8 
L 367.010909 -10.8 
L 371.665455 -10.8 
L 376.32 -10.8 
L 380.974545 -10.8 
L 385.629091 -10.8 
L 390.283636 -10.8 
L 394.938182 -10.8 
L 399.592727 -10.8 
L 404.247273 -10.8 
L 408.901818 -10.8 
L 413.556364 -10.8 
L 418.210909 -10.8 
L 422.865455 -10.8 
L 427.52 -10.8 
L 432.174545 -10.8 
L 436.829091 -10.8 
L 441.483636 -10.8 
L 446.138182 -10.8 
L 450.792727 -10.8 
L 455.447273 -10.8 
L 460.101818 -10.8 
L 464.756364 -10.8 
L 469.410909 -10.8 
L 474.065455 -10.8 
L 478.72 -10.8 
L 483.374545 -10.8 
L 488.029091 -10.8 
L 492.683636 -10.8 
L 497.338182 -10.8 
L 501.992727 -10.8 
L 506.647273 -10.8 
L 511.301818 -10.8 
L 515.956364 -10.8 
L 520.610909 -10.8 
L 525.265455 -10.8 
L 529.92 -10.8 
L 529.92 -65.542936 
L 529.92 -65.542936 
L 525.265455 -65.221802 
L 520.610909 -65.031957 
L 515.956364 -64.923702 
L 511.301818 -64.864036 
L 506.647273 -64.832085 
L 501.992727 -64.815599 
L 497.338182 -64.807355 
L 492.683636 -64.803237 
L 488.029091 -64.801448 
L 483.374545 -64.800545 
L 478.72 -64.800235 
L 474.065455 -64.800072 
L 469.410909 -64.80003 
L 464.756364 -64.800008 
L 460.101818 -64.800003 
L 455.447273 -64.800001 
L 450.792727 -64.8 
L 446.138182 -64.8 
L 441.483636 -64.8 
L 436.829091 -64.8 
L 432.174545 -64.8 
L 427.52 -64.8 
L 422.865455 -64.8 
L 418.210909 -64.8 
L 413.556364 -64.8 
L 408.901818 -64.8 
L 404.247273 -64.8 
L 399.592727 -64.8 
L 394.938182 -64.8 
L 390.283636 -64.8 
L 385.629091 -64.8 
L 380.974545 -64.8 
L 376.32 -64.800001 
L 371.665455 -64.800002 
L 367.010909 -64.800006 
L 362.356364 -64.800017 
L 357.701818 -64.800044 
L 353.047273 -64.80011 
L 348.392727 -64.80027 
L 343.738182 -64.800645 
L 339.083636 -64.801494 
L 334.429091 -64.803363 
L 329.774545 -64.807349 
L 325.12 -64.815583 
L 320.465455 -64.832057 
L 315.810909 -64.86396 
L 311.156364 -64.923735 
L 306.501818 -65.032049 
L 301.847273 -65.22177 
L 297.192727 -65.542848 
L 292.538182 -66.067577 
L 287.883636 -66.89515 
L 283.229091 -68.153604 
L 278.574545 -69.996355 
L 273.92 -72.589688 
L 269.265455 -76.087271 
L 264.610909 -80.589011 
L 259.956364 -86.085879 
L 255.301818 -92.401118 
L 250.647273 -99.150343 
L 245.992727 -105.751487 
L 241.338182 -111.507989 
L 236.683636 -115.756373 
L 232.029091 -118.026632 
L 227.374545 -118.144445 
L 222.72 -116.234558 
L 218.065455 -112.643278 
L 213.410909 -107.835833 
L 208.756364 -102.315989 
L 204.101818 -96.581322 
L 199.447273 -91.102959 
L 194.792727 -86.312748 
L 190.138182 -82.586709 
L 185.483636 -80.222177 
L 180.829091 -79.411695 
L 176.174545 -80.222177 
L 171.52 -82.586709 
L 166.865455 -86.312748 
L 162.210909 -91.102959 
L 157.556364 -96.581322 
L 152.901818 -102.315989 
L 148.247273 -107.835833 
L 143.592727 -112.643278 
L 138.938182 -116.234558 
L 134.283636 -118.144445 
L 129.629091 -118.026632 
L 124.974545 -115.75637 
L 120.32 -111.50796 
L 115.665455 -105.75148 
L 111.010909 -99.150262 
L 106.356364 -92.401086 
L 101.701818 -86.085741 
L 97.047273 -80.588958 
L 92.392727 -76.08726 
L 87.738182 -72.589684 
L 83.083636 -69.996441 
L 78.429091 -68.153636 
L 73.774545 -66.895059 
L 69.12 -66.067543 
z
" style="stroke: #0000ff; stroke-opacity: 0.4"/>
    </defs>
    <g clip-path="url(#p9a08e87dda)">
     <use xlink:href="#m980253a4da" x="0" y="216" style="fill: #0000ff; fill-opacity: 0.4; stroke: #0000ff; stroke-opacity: 0.4"/>
    </g>
   </g>
   <g id="matplotlib.axis_1">
    <g id="xtick_1">
     <g id="line2d_1">
      <path d="M 180.829091 172.8 
L 180.829091 21.6 
" clip-path="url(#p9a08e87dda)" style="fill: none; stroke: #b0b0b0; stroke-width: 0.8; stroke-linecap: square"/>
     </g>
     <g id="line2d_2">
      <defs>
       <path id="m7e494fdb08" d="M 0 0 
L 0 3.5 
" style="stroke: #000000; stroke-width: 0.8"/>
      </defs>
      <g>
       <use xlink:href="#m7e494fdb08" x="180.829091" y="172.8" style="stroke: #000000; stroke-width: 0.8"/>
      </g>
     </g>
     <g id="text_1">
      <!-- 25 -->
      <g transform="translate(170.649091 191.9575) scale(0.16 -0.16)">
       <defs>
        <path id="DejaVuSans-32" d="M 1228 531 
L 3431 531 
L 3431 0 
L 469 0 
L 469 531 
Q 828 903 1448 1529 
Q 2069 2156 2228 2338 
Q 2531 2678 2651 2914 
Q 2772 3150 2772 3378 
Q 2772 3750 2511 3984 
Q 2250 4219 1831 4219 
Q 1534 4219 1204 4116 
Q 875 4013 500 3803 
L 500 4441 
Q 881 4594 1212 4672 
Q 1544 4750 1819 4750 
Q 2544 4750 2975 4387 
Q 3406 4025 3406 3419 
Q 3406 3131 3298 2873 
Q 3191 2616 2906 2266 
Q 2828 2175 2409 1742 
Q 1991 1309 1228 531 
z
" transform="scale(0.015625)"/>
        <path id="DejaVuSans-35" d="M 691 4666 
L 3169 4666 
L 3169 4134 
L 1269 4134 
L 1269 2991 
Q 1406 3038 1543 3061 
Q 1681 3084 1819 3084 
Q 2600 3084 3056 2656 
Q 3513 2228 3513 1497 
Q 3513 744 3044 326 
Q 2575 -91 1722 -91 
Q 1428 -91 1123 -41 
Q 819 9 494 109 
L 494 744 
Q 775 591 1075 516 
Q 1375 441 1709 441 
Q 2250 441 2565 725 
Q 2881 1009 2881 1497 
Q 2881 1984 2565 2268 
Q 2250 2553 1709 2553 
Q 1456 2553 1204 2497 
Q 953 2441 691 2322 
L 691 4666 
z
" transform="scale(0.015625)"/>
       </defs>
       <use xlink:href="#DejaVuSans-32"/>
       <use xlink:href="#DejaVuSans-35" x="63.623047"/>
      </g>
     </g>
    </g>
    <g id="xtick_2">
     <g id="line2d_3">
      <path d="M 297.192727 172.8 
L 297.192727 21.6 
" clip-path="url(#p9a08e87dda)" style="fill: none; stroke: #b0b0b0; stroke-width: 0.8; stroke-linecap: square"/>
     </g>
     <g id="line2d_4">
      <g>
       <use xlink:href="#m7e494fdb08" x="297.192727" y="172.8" style="stroke: #000000; stroke-width: 0.8"/>
      </g>
     </g>
     <g id="text_2">
      <!-- 50 -->
      <g transform="translate(287.012727 191.9575) scale(0.16 -0.16)">
       <defs>
        <path id="DejaVuSans-30" d="M 2034 4250 
Q 1547 4250 1301 3770 
Q 1056 3291 1056 2328 
Q 1056 1369 1301 889 
Q 1547 409 2034 409 
Q 2525 409 2770 889 
Q 3016 1369 3016 2328 
Q 3016 3291 2770 3770 
Q 2525 4250 2034 4250 
z
M 2034 4750 
Q 2819 4750 3233 4129 
Q 3647 3509 3647 2328 
Q 3647 1150 3233 529 
Q 2819 -91 2034 -91 
Q 1250 -91 836 529 
Q 422 1150 422 2328 
Q 422 3509 836 4129 
Q 1250 4750 2034 4750 
z
" transform="scale(0.015625)"/>
       </defs>
       <use xlink:href="#DejaVuSans-35"/>
       <use xlink:href="#DejaVuSans-30" x="63.623047"/>
      </g>
     </g>
    </g>
    <g id="xtick_3">
     <g id="line2d_5">
      <path d="M 413.556364 172.8 
L 413.556364 21.6 
" clip-path="url(#p9a08e87dda)" style="fill: none; stroke: #b0b0b0; stroke-width: 0.8; stroke-linecap: square"/>
     </g>
     <g id="line2d_6">
      <g>
       <use xlink:href="#m7e494fdb08" x="413.556364" y="172.8" style="stroke: #000000; stroke-width: 0.8"/>
      </g>
     </g>
     <g id="text_3">
      <!-- 75 -->
      <g transform="translate(403.376364 191.9575) scale(0.16 -0.16)">
       <defs>
        <path id="DejaVuSans-37" d="M 525 4666 
L 3525 4666 
L 3525 4397 
L 1831 0 
L 1172 0 
L 2766 4134 
L 525 4134 
L 525 4666 
z
" transform="scale(0.015625)"/>
       </defs>
       <use xlink:href="#DejaVuSans-37"/>
       <use xlink:href="#DejaVuSans-35" x="63.623047"/>
      </g>
     </g>
    </g>
    <g id="xtick_4">
     <g id="line2d_7">
      <path d="M 529.92 172.8 
L 529.92 21.6 
" clip-path="url(#p9a08e87dda)" style="fill: none; stroke: #b0b0b0; stroke-width: 0.8; stroke-linecap: square"/>
     </g>
     <g id="line2d_8">
      <g>
       <use xlink:href="#m7e494fdb08" x="529.92" y="172.8" style="stroke: #000000; stroke-width: 0.8"/>
      </g>
     </g>
     <g id="text_4">
      <!-- 100 -->
      <g transform="translate(514.65 191.9575) scale(0.16 -0.16)">
       <defs>
        <path id="DejaVuSans-31" d="M 794 531 
L 1825 531 
L 1825 4091 
L 703 3866 
L 703 4441 
L 1819 4666 
L 2450 4666 
L 2450 531 
L 3481 531 
L 3481 0 
L 794 0 
L 794 531 
z
" transform="scale(0.015625)"/>
       </defs>
       <use xlink:href="#DejaVuSans-31"/>
       <use xlink:href="#DejaVuSans-30" x="63.623047"/>
       <use xlink:href="#DejaVuSans-30" x="127.246094"/>
      </g>
     </g>
    </g>
    <g id="text_5">
     <!-- Distance [m] -->
     <g transform="translate(247.9625 211.4425) scale(0.16 -0.16)">
      <defs>
       <path id="DejaVuSans-44" d="M 1259 4147 
L 1259 519 
L 2022 519 
Q 2988 519 3436 956 
Q 3884 1394 3884 2338 
Q 3884 3275 3436 3711 
Q 2988 4147 2022 4147 
L 1259 4147 
z
M 628 4666 
L 1925 4666 
Q 3281 4666 3915 4102 
Q 4550 3538 4550 2338 
Q 4550 1131 3912 565 
Q 3275 0 1925 0 
L 628 0 
L 628 4666 
z
" transform="scale(0.015625)"/>
       <path id="DejaVuSans-69" d="M 603 3500 
L 1178 3500 
L 1178 0 
L 603 0 
L 603 3500 
z
M 603 4863 
L 1178 4863 
L 1178 4134 
L 603 4134 
L 603 4863 
z
" transform="scale(0.015625)"/>
       <path id="DejaVuSans-73" d="M 2834 3397 
L 2834 2853 
Q 2591 2978 2328 3040 
Q 2066 3103 1784 3103 
Q 1356 3103 1142 2972 
Q 928 2841 928 2578 
Q 928 2378 1081 2264 
Q 1234 2150 1697 2047 
L 1894 2003 
Q 2506 1872 2764 1633 
Q 3022 1394 3022 966 
Q 3022 478 2636 193 
Q 2250 -91 1575 -91 
Q 1294 -91 989 -36 
Q 684 19 347 128 
L 347 722 
Q 666 556 975 473 
Q 1284 391 1588 391 
Q 1994 391 2212 530 
Q 2431 669 2431 922 
Q 2431 1156 2273 1281 
Q 2116 1406 1581 1522 
L 1381 1569 
Q 847 1681 609 1914 
Q 372 2147 372 2553 
Q 372 3047 722 3315 
Q 1072 3584 1716 3584 
Q 2034 3584 2315 3537 
Q 2597 3491 2834 3397 
z
" transform="scale(0.015625)"/>
       <path id="DejaVuSans-74" d="M 1172 4494 
L 1172 3500 
L 2356 3500 
L 2356 3053 
L 1172 3053 
L 1172 1153 
Q 1172 725 1289 603 
Q 1406 481 1766 481 
L 2356 481 
L 2356 0 
L 1766 0 
Q 1100 0 847 248 
Q 594 497 594 1153 
L 594 3053 
L 172 3053 
L 172 3500 
L 594 3500 
L 594 4494 
L 1172 4494 
z
" transform="scale(0.015625)"/>
       <path id="DejaVuSans-61" d="M 2194 1759 
Q 1497 1759 1228 1600 
Q 959 1441 959 1056 
Q 959 750 1161 570 
Q 1363 391 1709 391 
Q 2188 391 2477 730 
Q 2766 1069 2766 1631 
L 2766 1759 
L 2194 1759 
z
M 3341 1997 
L 3341 0 
L 2766 0 
L 2766 531 
Q 2569 213 2275 61 
Q 1981 -91 1556 -91 
Q 1019 -91 701 211 
Q 384 513 384 1019 
Q 384 1609 779 1909 
Q 1175 2209 1959 2209 
L 2766 2209 
L 2766 2266 
Q 2766 2663 2505 2880 
Q 2244 3097 1772 3097 
Q 1472 3097 1187 3025 
Q 903 2953 641 2809 
L 641 3341 
Q 956 3463 1253 3523 
Q 1550 3584 1831 3584 
Q 2591 3584 2966 3190 
Q 3341 2797 3341 1997 
z
" transform="scale(0.015625)"/>
       <path id="DejaVuSans-6e" d="M 3513 2113 
L 3513 0 
L 2938 0 
L 2938 2094 
Q 2938 2591 2744 2837 
Q 2550 3084 2163 3084 
Q 1697 3084 1428 2787 
Q 1159 2491 1159 1978 
L 1159 0 
L 581 0 
L 581 3500 
L 1159 3500 
L 1159 2956 
Q 1366 3272 1645 3428 
Q 1925 3584 2291 3584 
Q 2894 3584 3203 3211 
Q 3513 2838 3513 2113 
z
" transform="scale(0.015625)"/>
       <path id="DejaVuSans-63" d="M 3122 3366 
L 3122 2828 
Q 2878 2963 2633 3030 
Q 2388 3097 2138 3097 
Q 1578 3097 1268 2742 
Q 959 2388 959 1747 
Q 959 1106 1268 751 
Q 1578 397 2138 397 
Q 2388 397 2633 464 
Q 2878 531 3122 666 
L 3122 134 
Q 2881 22 2623 -34 
Q 2366 -91 2075 -91 
Q 1284 -91 818 406 
Q 353 903 353 1747 
Q 353 2603 823 3093 
Q 1294 3584 2113 3584 
Q 2378 3584 2631 3529 
Q 2884 3475 3122 3366 
z
" transform="scale(0.015625)"/>
       <path id="DejaVuSans-65" d="M 3597 1894 
L 3597 1613 
L 953 1613 
Q 991 1019 1311 708 
Q 1631 397 2203 397 
Q 2534 397 2845 478 
Q 3156 559 3463 722 
L 3463 178 
Q 3153 47 2828 -22 
Q 2503 -91 2169 -91 
Q 1331 -91 842 396 
Q 353 884 353 1716 
Q 353 2575 817 3079 
Q 1281 3584 2069 3584 
Q 2775 3584 3186 3129 
Q 3597 2675 3597 1894 
z
M 3022 2063 
Q 3016 2534 2758 2815 
Q 2500 3097 2075 3097 
Q 1594 3097 1305 2825 
Q 1016 2553 972 2059 
L 3022 2063 
z
" transform="scale(0.015625)"/>
       <path id="DejaVuSans-20" transform="scale(0.015625)"/>
       <path id="DejaVuSans-5b" d="M 550 4863 
L 1875 4863 
L 1875 4416 
L 1125 4416 
L 1125 -397 
L 1875 -397 
L 1875 -844 
L 550 -844 
L 550 4863 
z
" transform="scale(0.015625)"/>
       <path id="DejaVuSans-6d" d="M 3328 2828 
Q 3544 3216 3844 3400 
Q 4144 3584 4550 3584 
Q 5097 3584 5394 3201 
Q 5691 2819 5691 2113 
L 5691 0 
L 5113 0 
L 5113 2094 
Q 5113 2597 4934 2840 
Q 4756 3084 4391 3084 
Q 3944 3084 3684 2787 
Q 3425 2491 3425 1978 
L 3425 0 
L 2847 0 
L 2847 2094 
Q 2847 2600 2669 2842 
Q 2491 3084 2119 3084 
Q 1678 3084 1418 2786 
Q 1159 2488 1159 1978 
L 1159 0 
L 581 0 
L 581 3500 
L 1159 3500 
L 1159 2956 
Q 1356 3278 1631 3431 
Q 1906 3584 2284 3584 
Q 2666 3584 2933 3390 
Q 3200 3197 3328 2828 
z
" transform="scale(0.015625)"/>
       <path id="DejaVuSans-5d" d="M 1947 4863 
L 1947 -844 
L 622 -844 
L 622 -397 
L 1369 -397 
L 1369 4416 
L 622 4416 
L 622 4863 
L 1947 4863 
z
" transform="scale(0.015625)"/>
      </defs>
      <use xlink:href="#DejaVuSans-44"/>
      <use xlink:href="#DejaVuSans-69" x="77.001953"/>
      <use xlink:href="#DejaVuSans-73" x="104.785156"/>
      <use xlink:href="#DejaVuSans-74" x="156.884766"/>
      <use xlink:href="#DejaVuSans-61" x="196.09375"/>
      <use xlink:href="#DejaVuSans-6e" x="257.373047"/>
      <use xlink:href="#DejaVuSans-63" x="320.751953"/>
      <use xlink:href="#DejaVuSans-65" x="375.732422"/>
      <use xlink:href="#DejaVuSans-20" x="437.255859"/>
      <use xlink:href="#DejaVuSans-5b" x="469.042969"/>
      <use xlink:href="#DejaVuSans-6d" x="508.056641"/>
      <use xlink:href="#DejaVuSans-5d" x="605.46875"/>
     </g>
    </g>
   </g>
   <g id="matplotlib.axis_2">
    <g id="ytick_1">
     <g id="line2d_9">
      <path d="M 69.12 172.8 
L 529.92 172.8 
" clip-path="url(#p9a08e87dda)" style="fill: none; stroke: #b0b0b0; stroke-width: 0.8; stroke-linecap: square"/>
     </g>
     <g id="line2d_10">
      <defs>
       <path id="ma4288d17e4" d="M 0 0 
L -3.5 0 
" style="stroke: #000000; stroke-width: 0.8"/>
      </defs>
      <g>
       <use xlink:href="#ma4288d17e4" x="69.12" y="172.8" style="stroke: #000000; stroke-width: 0.8"/>
      </g>
     </g>
     <g id="text_6">
      <!-- −0.2 -->
      <g transform="translate(23.2675 178.87875) scale(0.16 -0.16)">
       <defs>
        <path id="DejaVuSans-2212" d="M 678 2272 
L 4684 2272 
L 4684 1741 
L 678 1741 
L 678 2272 
z
" transform="scale(0.015625)"/>
        <path id="DejaVuSans-2e" d="M 684 794 
L 1344 794 
L 1344 0 
L 684 0 
L 684 794 
z
" transform="scale(0.015625)"/>
       </defs>
       <use xlink:href="#DejaVuSans-2212"/>
       <use xlink:href="#DejaVuSans-30" x="83.789062"/>
       <use xlink:href="#DejaVuSans-2e" x="147.412109"/>
       <use xlink:href="#DejaVuSans-32" x="179.199219"/>
      </g>
     </g>
    </g>
    <g id="ytick_2">
     <g id="line2d_11">
      <path d="M 69.12 151.2 
L 529.92 151.2 
" clip-path="url(#p9a08e87dda)" style="fill: none; stroke: #b0b0b0; stroke-width: 0.8; stroke-linecap: square"/>
     </g>
     <g id="line2d_12">
      <g>
       <use xlink:href="#ma4288d17e4" x="69.12" y="151.2" style="stroke: #000000; stroke-width: 0.8"/>
      </g>
     </g>
     <g id="text_7">
      <!-- 0.0 -->
      <g transform="translate(36.675 157.27875) scale(0.16 -0.16)">
       <use xlink:href="#DejaVuSans-30"/>
       <use xlink:href="#DejaVuSans-2e" x="63.623047"/>
       <use xlink:href="#DejaVuSans-30" x="95.410156"/>
      </g>
     </g>
    </g>
    <g id="ytick_3">
     <g id="line2d_13">
      <path d="M 69.12 129.6 
L 529.92 129.6 
" clip-path="url(#p9a08e87dda)" style="fill: none; stroke: #b0b0b0; stroke-width: 0.8; stroke-linecap: square"/>
     </g>
     <g id="line2d_14">
      <g>
       <use xlink:href="#ma4288d17e4" x="69.12" y="129.6" style="stroke: #000000; stroke-width: 0.8"/>
      </g>
     </g>
     <g id="text_8">
      <!-- 0.2 -->
      <g transform="translate(36.675 135.67875) scale(0.16 -0.16)">
       <use xlink:href="#DejaVuSans-30"/>
       <use xlink:href="#DejaVuSans-2e" x="63.623047"/>
       <use xlink:href="#DejaVuSans-32" x="95.410156"/>
      </g>
     </g>
    </g>
    <g id="ytick_4">
     <g id="line2d_15">
      <path d="M 69.12 108 
L 529.92 108 
" clip-path="url(#p9a08e87dda)" style="fill: none; stroke: #b0b0b0; stroke-width: 0.8; stroke-linecap: square"/>
     </g>
     <g id="line2d_16">
      <g>
       <use xlink:href="#ma4288d17e4" x="69.12" y="108" style="stroke: #000000; stroke-width: 0.8"/>
      </g>
     </g>
     <g id="text_9">
      <!-- 0.4 -->
      <g transform="translate(36.675 114.07875) scale(0.16 -0.16)">
       <defs>
        <path id="DejaVuSans-34" d="M 2419 4116 
L 825 1625 
L 2419 1625 
L 2419 4116 
z
M 2253 4666 
L 3047 4666 
L 3047 1625 
L 3713 1625 
L 3713 1100 
L 3047 1100 
L 3047 0 
L 2419 0 
L 2419 1100 
L 313 1100 
L 313 1709 
L 2253 4666 
z
" transform="scale(0.015625)"/>
       </defs>
       <use xlink:href="#DejaVuSans-30"/>
       <use xlink:href="#DejaVuSans-2e" x="63.623047"/>
       <use xlink:href="#DejaVuSans-34" x="95.410156"/>
      </g>
     </g>
    </g>
    <g id="ytick_5">
     <g id="line2d_17">
      <path d="M 69.12 86.4 
L 529.92 86.4 
" clip-path="url(#p9a08e87dda)" style="fill: none; stroke: #b0b0b0; stroke-width: 0.8; stroke-linecap: square"/>
     </g>
     <g id="line2d_18">
      <g>
       <use xlink:href="#ma4288d17e4" x="69.12" y="86.4" style="stroke: #000000; stroke-width: 0.8"/>
      </g>
     </g>
     <g id="text_10">
      <!-- 0.6 -->
      <g transform="translate(36.675 92.47875) scale(0.16 -0.16)">
       <defs>
        <path id="DejaVuSans-36" d="M 2113 2584 
Q 1688 2584 1439 2293 
Q 1191 2003 1191 1497 
Q 1191 994 1439 701 
Q 1688 409 2113 409 
Q 2538 409 2786 701 
Q 3034 994 3034 1497 
Q 3034 2003 2786 2293 
Q 2538 2584 2113 2584 
z
M 3366 4563 
L 3366 3988 
Q 3128 4100 2886 4159 
Q 2644 4219 2406 4219 
Q 1781 4219 1451 3797 
Q 1122 3375 1075 2522 
Q 1259 2794 1537 2939 
Q 1816 3084 2150 3084 
Q 2853 3084 3261 2657 
Q 3669 2231 3669 1497 
Q 3669 778 3244 343 
Q 2819 -91 2113 -91 
Q 1303 -91 875 529 
Q 447 1150 447 2328 
Q 447 3434 972 4092 
Q 1497 4750 2381 4750 
Q 2619 4750 2861 4703 
Q 3103 4656 3366 4563 
z
" transform="scale(0.015625)"/>
       </defs>
       <use xlink:href="#DejaVuSans-30"/>
       <use xlink:href="#DejaVuSans-2e" x="63.623047"/>
       <use xlink:href="#DejaVuSans-36" x="95.410156"/>
      </g>
     </g>
    </g>
    <g id="ytick_6">
     <g id="line2d_19">
      <path d="M 69.12 64.8 
L 529.92 64.8 
" clip-path="url(#p9a08e87dda)" style="fill: none; stroke: #b0b0b0; stroke-width: 0.8; stroke-linecap: square"/>
     </g>
     <g id="line2d_20">
      <g>
       <use xlink:href="#ma4288d17e4" x="69.12" y="64.8" style="stroke: #000000; stroke-width: 0.8"/>
      </g>
     </g>
     <g id="text_11">
      <!-- 0.8 -->
      <g transform="translate(36.675 70.87875) scale(0.16 -0.16)">
       <defs>
        <path id="DejaVuSans-38" d="M 2034 2216 
Q 1584 2216 1326 1975 
Q 1069 1734 1069 1313 
Q 1069 891 1326 650 
Q 1584 409 2034 409 
Q 2484 409 2743 651 
Q 3003 894 3003 1313 
Q 3003 1734 2745 1975 
Q 2488 2216 2034 2216 
z
M 1403 2484 
Q 997 2584 770 2862 
Q 544 3141 544 3541 
Q 544 4100 942 4425 
Q 1341 4750 2034 4750 
Q 2731 4750 3128 4425 
Q 3525 4100 3525 3541 
Q 3525 3141 3298 2862 
Q 3072 2584 2669 2484 
Q 3125 2378 3379 2068 
Q 3634 1759 3634 1313 
Q 3634 634 3220 271 
Q 2806 -91 2034 -91 
Q 1263 -91 848 271 
Q 434 634 434 1313 
Q 434 1759 690 2068 
Q 947 2378 1403 2484 
z
M 1172 3481 
Q 1172 3119 1398 2916 
Q 1625 2713 2034 2713 
Q 2441 2713 2670 2916 
Q 2900 3119 2900 3481 
Q 2900 3844 2670 4047 
Q 2441 4250 2034 4250 
Q 1625 4250 1398 4047 
Q 1172 3844 1172 3481 
z
" transform="scale(0.015625)"/>
       </defs>
       <use xlink:href="#DejaVuSans-30"/>
       <use xlink:href="#DejaVuSans-2e" x="63.623047"/>
       <use xlink:href="#DejaVuSans-38" x="95.410156"/>
      </g>
     </g>
    </g>
    <g id="ytick_7">
     <g id="line2d_21">
      <path d="M 69.12 43.2 
L 529.92 43.2 
" clip-path="url(#p9a08e87dda)" style="fill: none; stroke: #b0b0b0; stroke-width: 0.8; stroke-linecap: square"/>
     </g>
     <g id="line2d_22">
      <g>
       <use xlink:href="#ma4288d17e4" x="69.12" y="43.2" style="stroke: #000000; stroke-width: 0.8"/>
      </g>
     </g>
     <g id="text_12">
      <!-- 1.0 -->
      <g transform="translate(36.675 49.27875) scale(0.16 -0.16)">
       <use xlink:href="#DejaVuSans-31"/>
       <use xlink:href="#DejaVuSans-2e" x="63.623047"/>
       <use xlink:href="#DejaVuSans-30" x="95.410156"/>
      </g>
     </g>
    </g>
    <g id="ytick_8">
     <g id="line2d_23">
      <path d="M 69.12 21.6 
L 529.92 21.6 
" clip-path="url(#p9a08e87dda)" style="fill: none; stroke: #b0b0b0; stroke-width: 0.8; stroke-linecap: square"/>
     </g>
     <g id="line2d_24">
      <g>
       <use xlink:href="#ma4288d17e4" x="69.12" y="21.6" style="stroke: #000000; stroke-width: 0.8"/>
      </g>
     </g>
     <g id="text_13">
      <!-- 1.2 -->
      <g transform="translate(36.675 27.67875) scale(0.16 -0.16)">
       <use xlink:href="#DejaVuSans-31"/>
       <use xlink:href="#DejaVuSans-2e" x="63.623047"/>
       <use xlink:href="#DejaVuSans-32" x="95.410156"/>
      </g>
     </g>
    </g>
    <g id="text_14">
     <!-- Water elevation [m] -->
     <g transform="translate(15.94 176.99875) rotate(-90) scale(0.16 -0.16)">
      <defs>
       <path id="DejaVuSans-57" d="M 213 4666 
L 850 4666 
L 1831 722 
L 2809 4666 
L 3519 4666 
L 4500 722 
L 5478 4666 
L 6119 4666 
L 4947 0 
L 4153 0 
L 3169 4050 
L 2175 0 
L 1381 0 
L 213 4666 
z
" transform="scale(0.015625)"/>
       <path id="DejaVuSans-72" d="M 2631 2963 
Q 2534 3019 2420 3045 
Q 2306 3072 2169 3072 
Q 1681 3072 1420 2755 
Q 1159 2438 1159 1844 
L 1159 0 
L 581 0 
L 581 3500 
L 1159 3500 
L 1159 2956 
Q 1341 3275 1631 3429 
Q 1922 3584 2338 3584 
Q 2397 3584 2469 3576 
Q 2541 3569 2628 3553 
L 2631 2963 
z
" transform="scale(0.015625)"/>
       <path id="DejaVuSans-6c" d="M 603 4863 
L 1178 4863 
L 1178 0 
L 603 0 
L 603 4863 
z
" transform="scale(0.015625)"/>
       <path id="DejaVuSans-76" d="M 191 3500 
L 800 3500 
L 1894 563 
L 2988 3500 
L 3597 3500 
L 2284 0 
L 1503 0 
L 191 3500 
z
" transform="scale(0.015625)"/>
       <path id="DejaVuSans-6f" d="M 1959 3097 
Q 1497 3097 1228 2736 
Q 959 2375 959 1747 
Q 959 1119 1226 758 
Q 1494 397 1959 397 
Q 2419 397 2687 759 
Q 2956 1122 2956 1747 
Q 2956 2369 2687 2733 
Q 2419 3097 1959 3097 
z
M 1959 3584 
Q 2709 3584 3137 3096 
Q 3566 2609 3566 1747 
Q 3566 888 3137 398 
Q 2709 -91 1959 -91 
Q 1206 -91 779 398 
Q 353 888 353 1747 
Q 353 2609 779 3096 
Q 1206 3584 1959 3584 
z
" transform="scale(0.015625)"/>
      </defs>
      <use xlink:href="#DejaVuSans-57"/>
      <use xlink:href="#DejaVuSans-61" x="92.501953"/>
      <use xlink:href="#DejaVuSans-74" x="153.78125"/>
      <use xlink:href="#DejaVuSans-65" x="192.990234"/>
      <use xlink:href="#DejaVuSans-72" x="254.513672"/>
      <use xlink:href="#DejaVuSans-20" x="295.626953"/>
      <use xlink:href="#DejaVuSans-65" x="327.414062"/>
      <use xlink:href="#DejaVuSans-6c" x="388.9375"/>
      <use xlink:href="#DejaVuSans-65" x="416.720703"/>
      <use xlink:href="#DejaVuSans-76" x="478.244141"/>
      <use xlink:href="#DejaVuSans-61" x="537.423828"/>
      <use xlink:href="#DejaVuSans-74" x="598.703125"/>
      <use xlink:href="#DejaVuSans-69" x="637.912109"/>
      <use xlink:href="#DejaVuSans-6f" x="665.695312"/>
      <use xlink:href="#DejaVuSans-6e" x="726.876953"/>
      <use xlink:href="#DejaVuSans-20" x="790.255859"/>
      <use xlink:href="#DejaVuSans-5b" x="822.042969"/>
      <use xlink:href="#DejaVuSans-6d" x="861.056641"/>
      <use xlink:href="#DejaVuSans-5d" x="958.46875"/>
     </g>
    </g>
   </g>
   <g id="line2d_25">
    <path d="M 69.12 149.932457 
L 73.774545 149.104941 
L 78.429091 147.846364 
L 83.083636 146.003559 
L 87.738182 143.410316 
L 92.392727 139.91274 
L 97.047273 135.411042 
L 101.701818 129.914259 
L 106.356364 123.598914 
L 111.010909 116.849738 
L 115.665455 110.24852 
L 120.32 104.49204 
L 124.974545 100.24363 
L 129.629091 97.973368 
L 134.283636 97.855555 
L 138.938182 99.765442 
L 143.592727 103.356722 
L 148.247273 108.164167 
L 152.901818 113.684011 
L 157.556364 119.418678 
L 162.210909 124.897041 
L 166.865455 129.687252 
L 171.52 133.413291 
L 176.174545 135.777823 
L 180.829091 136.588305 
L 185.483636 135.777823 
L 190.138182 133.413291 
L 194.792727 129.687252 
L 199.447273 124.897041 
L 204.101818 119.418678 
L 208.756364 113.684011 
L 213.410909 108.164167 
L 218.065455 103.356722 
L 222.72 99.765442 
L 227.374545 97.855555 
L 232.029091 97.973368 
L 236.683636 100.243627 
L 241.338182 104.492011 
L 245.992727 110.248513 
L 250.647273 116.849657 
L 255.301818 123.598882 
L 259.956364 129.914121 
L 264.610909 135.410989 
L 269.265455 139.912729 
L 273.92 143.410312 
L 278.574545 146.003645 
L 283.229091 147.846396 
L 287.883636 149.10485 
L 292.538182 149.932423 
L 297.192727 150.457152 
L 301.847273 150.77823 
L 306.501818 150.967951 
L 311.156364 151.076265 
L 315.810909 151.13604 
L 320.465455 151.167943 
L 325.12 151.184417 
L 329.774545 151.192651 
L 334.429091 151.196637 
L 339.083636 151.198506 
L 343.738182 151.199355 
L 348.392727 151.19973 
L 353.047273 151.19989 
L 357.701818 151.199956 
L 362.356364 151.199983 
L 367.010909 151.199994 
L 371.665455 151.199998 
L 376.32 151.199999 
L 380.974545 151.2 
L 385.629091 151.2 
L 390.283636 151.2 
L 394.938182 151.2 
L 399.592727 151.2 
L 404.247273 151.2 
L 408.901818 151.2 
L 413.556364 151.2 
L 418.210909 151.2 
L 422.865455 151.2 
L 427.52 151.2 
L 432.174545 151.2 
L 436.829091 151.2 
L 441.483636 151.2 
L 446.138182 151.2 
L 450.792727 151.2 
L 455.447273 151.199999 
L 460.101818 151.199997 
L 464.756364 151.199992 
L 469.410909 151.19997 
L 474.065455 151.199928 
L 478.72 151.199765 
L 483.374545 151.199455 
L 488.029091 151.198552 
L 492.683636 151.196763 
L 497.338182 151.192645 
L 501.992727 151.184401 
L 506.647273 151.167915 
L 511.301818 151.135964 
L 515.956364 151.076298 
L 520.610909 150.968043 
L 525.265455 150.778198 
L 529.92 150.457064 
" clip-path="url(#p9a08e87dda)" style="fill: none; stroke: #0000ff; stroke-width: 1.5; stroke-linecap: square"/>
   </g>
   <g id="patch_3">
    <path d="M 69.12 172.8 
L 69.12 21.6 
" style="fill: none; stroke: #000000; stroke-width: 0.8; stroke-linejoin: miter; stroke-linecap: square"/>
   </g>
   <g id="patch_4">
    <path d="M 529.92 172.8 
L 529.92 21.6 
" style="fill: none; stroke: #000000; stroke-width: 0.8; stroke-linejoin: miter; stroke-linecap: square"/>
   </g>
   <g id="patch_5">
    <path d="M 69.12 172.8 
L 529.92 172.8 
" style="fill: none; stroke: #000000; stroke-width: 0.8; stroke-linejoin: miter; stroke-linecap: square"/>
   </g>
   <g id="patch_6">
    <path d="M 69.12 21.6 
L 529.92 21.6 
" style="fill: none; stroke: #000000; stroke-width: 0.8; stroke-linejoin: miter; stroke-linecap: square"/>
   </g>
   <g id="text_15">
    <!-- Water elevation [m], time step 50 -->
    <g transform="translate(136.887 15.6) scale(0.192 -0.192)">
     <defs>
      <path id="DejaVuSans-2c" d="M 750 794 
L 1409 794 
L 1409 256 
L 897 -744 
L 494 -744 
L 750 256 
L 750 794 
z
" transform="scale(0.015625)"/>
      <path id="DejaVuSans-70" d="M 1159 525 
L 1159 -1331 
L 581 -1331 
L 581 3500 
L 1159 3500 
L 1159 2969 
Q 1341 3281 1617 3432 
Q 1894 3584 2278 3584 
Q 2916 3584 3314 3078 
Q 3713 2572 3713 1747 
Q 3713 922 3314 415 
Q 2916 -91 2278 -91 
Q 1894 -91 1617 61 
Q 1341 213 1159 525 
z
M 3116 1747 
Q 3116 2381 2855 2742 
Q 2594 3103 2138 3103 
Q 1681 3103 1420 2742 
Q 1159 2381 1159 1747 
Q 1159 1113 1420 752 
Q 1681 391 2138 391 
Q 2594 391 2855 752 
Q 3116 1113 3116 1747 
z
" transform="scale(0.015625)"/>
     </defs>
     <use xlink:href="#DejaVuSans-57"/>
     <use xlink:href="#DejaVuSans-61" x="92.501953"/>
     <use xlink:href="#DejaVuSans-74" x="153.78125"/>
     <use xlink:href="#DejaVuSans-65" x="192.990234"/>
     <use xlink:href="#DejaVuSans-72" x="254.513672"/>
     <use xlink:href="#DejaVuSans-20" x="295.626953"/>
     <use xlink:href="#DejaVuSans-65" x="327.414062"/>
     <use xlink:href="#DejaVuSans-6c" x="388.9375"/>
     <use xlink:href="#DejaVuSans-65" x="416.720703"/>
     <use xlink:href="#DejaVuSans-76" x="478.244141"/>
     <use xlink:href="#DejaVuSans-61" x="537.423828"/>
     <use xlink:href="#DejaVuSans-74" x="598.703125"/>
     <use xlink:href="#DejaVuSans-69" x="637.912109"/>
     <use xlink:href="#DejaVuSans-6f" x="665.695312"/>
     <use xlink:href="#DejaVuSans-6e" x="726.876953"/>
     <use xlink:href="#DejaVuSans-20" x="790.255859"/>
     <use xlink:href="#DejaVuSans-5b" x="822.042969"/>
     <use xlink:href="#DejaVuSans-6d" x="861.056641"/>
     <use xlink:href="#DejaVuSans-5d" x="958.46875"/>
     <use xlink:href="#DejaVuSans-2c" x="997.482422"/>
     <use xlink:href="#DejaVuSans-20" x="1029.269531"/>
     <use xlink:href="#DejaVuSans-74" x="1061.056641"/>
     <use xlink:href="#DejaVuSans-69" x="1100.265625"/>
     <use xlink:href="#DejaVuSans-6d" x="1128.048828"/>
     <use xlink:href="#DejaVuSans-65" x="1225.460938"/>
     <use xlink:href="#DejaVuSans-20" x="1286.984375"/>
     <use xlink:href="#DejaVuSans-73" x="1318.771484"/>
     <use xlink:href="#DejaVuSans-74" x="1370.871094"/>
     <use xlink:href="#DejaVuSans-65" x="1410.080078"/>
     <use xlink:href="#DejaVuSans-70" x="1471.603516"/>
     <use xlink:href="#DejaVuSans-20" x="1535.080078"/>
     <use xlink:href="#DejaVuSans-35" x="1566.867188"/>
     <use xlink:href="#DejaVuSans-30" x="1630.490234"/>
    </g>
   </g>
  </g>
 </g>
 <defs>
  <clipPath id="p9a08e87dda">
   <rect x="69.12" y="21.6" width="460.8" height="151.2"/>
  </clipPath>
 </defs>
</svg>
